<?xml version="1.0" encoding="UTF-8" standalone="no"?>
<svg width="20px" height="20px" viewBox="0 0 20 20" version="1.1" xmlns="http://www.w3.org/2000/svg" xmlns:xlink="http://www.w3.org/1999/xlink" xmlns:sketch="http://www.bohemiancoding.com/sketch/ns">
  <g id="restart" stroke="none" stroke-width="1" fill="#FFFFFF" sketch:type="MSPage">
    <path d="M10,0 L10,2 C14.466667,2 18,5.5333333 18,10 C18,14.466667 14.466667,18 10,18 C5.5333333,18 2,14.466667 2,10 C2,8.308254 2.5299182,6.7424071 3.4375,5.4375 L5.59375,7.59375 L7,0.5 L0,2 L2.03125,4.03125 C0.7731486,5.7064434 0,7.7599441 0,10 C0,15.533333 4.4666667,20 10,20 C15.533333,20 20,15.533333 20,10 C20,4.4666667 15.533333,0 10,0 L10,0 Z" id="Shape" sketch:type="MSShapeGroup"></path>
  </g>
</svg>
